<?xml version="1.0" encoding="utf-8"?>
<!-- Generator: Adobe Illustrator 18.0.0, SVG Export Plug-In . SVG Version: 6.00 Build 0)  -->
<!DOCTYPE svg PUBLIC "-//W3C//DTD SVG 1.1//EN" "http://www.w3.org/Graphics/SVG/1.1/DTD/svg11.dtd">
<svg version="1.1" id="Layer_1" xmlns="http://www.w3.org/2000/svg" xmlns:xlink="http://www.w3.org/1999/xlink" x="0px" y="0px"
	 viewBox="0 0 576.2 229.3" enable-background="new 0 0 576.2 229.3" xml:space="preserve">
<g>
	<path fill="#403E56" d="M82.3,133c0.5-0.8,0.7-1.6,0.7-2.5c0-2.2-1.6-4.1-3.5-4.1c-1.9,0-3.5,1.8-3.5,4.1c0,0.9,0.2,1.7,0.7,2.5
		c-1,1.5-1,3.4,0,5c-1,1.5-1,3.4,0,5c-1,1.5-1,3.4,0,5c-0.5,0.8-0.7,1.6-0.7,2.5c0,2.2,1.6,4.1,3.5,4.1c1.9,0,3.5-1.8,3.5-4.1
		c0-0.9-0.2-1.7-0.7-2.5c1-1.5,1-3.4,0-5c1-1.5,1-3.4,0-5C83.3,136.4,83.3,134.5,82.3,133L82.3,133z"/>
	<ellipse fill="#403E56" cx="79.5" cy="125.5" rx="3.5" ry="4.1"/>
	<ellipse fill="#403E56" cx="79.5" cy="120.6" rx="3.5" ry="4.1"/>
	<path fill="#58B995" d="M66.4,86.6c-0.5-0.5-0.9-1.1-1.3-1.7l9.3-1.3l-10,0.1c-1.9-3.7-2.1-8-0.3-11.8L77.4,78L65,70
		c4.6-7.1,15-9.6,23-5.5c8.1,4.1,10.9,13.2,6.2,20.3c-0.4,0.6-0.9,1.2-1.4,1.8c0.7,0.8,1.4,1.7,1.9,2.7l-12,5.5L95.6,91
		c1.8,4.8,0.8,10-2.7,13.9c5.8,6.4,4.5,15.8-2.8,20.8c-7.3,5.1-17.9,4-23.7-2.5c-4.8-5.4-4.8-13,0-18.4C61.6,99.6,61.6,92,66.4,86.6
		L66.4,86.6z"/>
	<path opacity="0.1" fill="#010202" enable-background="new    " d="M96.5,95.8c0,3.3-1.3,6.6-3.6,9.2c5.8,6.4,4.5,15.8-2.8,20.8
		c-7.3,5.1-17.9,4-23.7-2.5c-4.8-5.4-4.8-13,0-18.4C64.1,102.5,96.5,94.1,96.5,95.8z"/>
	<path fill="#403E56" d="M263.8,138.2c0.4-0.6,0.6-1.2,0.6-1.9c0-1.7-1.2-3.1-2.7-3.1s-2.7,1.4-2.7,3.1c0,0.7,0.2,1.3,0.6,1.9
		c-0.7,1.2-0.7,2.6,0,3.8c-0.7,1.2-0.7,2.6,0,3.8c-0.7,1.2-0.7,2.6,0,3.8c-0.4,0.6-0.6,1.2-0.6,1.9c0,1.7,1.2,3.1,2.7,3.1
		c1.5,0,2.7-1.4,2.7-3.1c0-0.7-0.2-1.3-0.6-1.9c0.7-1.2,0.7-2.6,0-3.8c0.7-1.2,0.7-2.6,0-3.8C264.5,140.8,264.5,139.3,263.8,138.2z"
		/>
	<ellipse fill="#403E56" cx="261.6" cy="132.5" rx="2.7" ry="3.1"/>
	<ellipse fill="#403E56" cx="261.6" cy="128.7" rx="2.7" ry="3.1"/>
	<path fill="#58B995" d="M251.6,102.9c-0.4-0.4-0.7-0.8-1-1.3l7-1l-7.6,0.1c-1.5-2.8-1.6-6.1-0.2-8.9l10.2,4.7l-9.4-6.1
		c3.6-5.4,11.4-7.2,17.5-4.1c6.1,3.1,8.2,10,4.7,15.4c-0.3,0.5-0.6,0.9-1,1.3c0.6,0.6,1.1,1.3,1.5,2.1l-9.1,4.2l9.8-2.9
		c1.4,3.6,0.6,7.6-2.1,10.6c4.4,4.9,3.4,12-2.2,15.9c-5.6,3.9-13.6,3-18-1.9c-3.7-4.1-3.7-9.9,0-14
		C247.9,112.8,247.9,107,251.6,102.9L251.6,102.9z"/>
	<path opacity="0.1" fill="#010202" enable-background="new    " d="M274.5,109.9c0,2.5-1,5-2.7,7c4.4,4.9,3.4,12-2.2,15.9
		c-5.6,3.9-13.6,3-18-1.9c-3.7-4.1-3.7-9.9,0-14C249.9,115,274.5,108.6,274.5,109.9z"/>
	<path fill="#F2F2F2" d="M241.6,39.8h-45v-8.6c0-1.1-1-2-2.3-2c0,0,0,0,0,0h-13.2V20c0-0.7-0.7-1.3-1.5-1.3l0,0h-17
		c-0.8,0-1.5,0.6-1.5,1.3v9.1h-15.5c-1.3,0-2.3,0.9-2.3,2c0,0,0,0,0,0v8.6l0,0h-42.9c-0.3,0-0.5,0.2-0.5,0.4v113.7
		c0,0.2,0.2,0.4,0.5,0.4h28.5c0.3,0,0.5-0.2,0.5-0.4v-15.3c0-0.2,0.2-0.4,0.5-0.4h12c0.3,0,0.5,0.2,0.5,0.4v15.3
		c0,0.2,0.2,0.4,0.5,0.4h56.4c0.3,0,0.5-0.2,0.5-0.4v-15.3c0-0.2,0.2-0.4,0.5-0.4h12c0.3,0,0.5,0.2,0.5,0.4v15.3
		c0,0.2,0.2,0.4,0.5,0.4h28.5c0.3,0,0.5-0.2,0.5-0.4V40.2C242.1,39.9,241.9,39.8,241.6,39.8z M124.2,132.8c0,0.2-0.2,0.4-0.5,0.4
		h-17.6c-0.3,0-0.5-0.2-0.5-0.4c0,0,0,0,0,0v-5.3c0-0.2,0.2-0.4,0.5-0.4c0,0,0,0,0,0h17.6c0.3,0,0.5,0.2,0.5,0.4L124.2,132.8z
		 M124.2,119.1c0,0.2-0.2,0.4-0.5,0.4h-17.6c-0.3,0-0.5-0.2-0.5-0.4c0,0,0,0,0,0v-5.3c0-0.2,0.2-0.4,0.5-0.4c0,0,0,0,0,0h17.6
		c0.3,0,0.5,0.2,0.5,0.4l0,0L124.2,119.1z M124.2,105.5c0,0.2-0.2,0.4-0.5,0.4h-17.6c-0.3,0-0.5-0.2-0.5-0.4v-5.3
		c0-0.2,0.2-0.4,0.5-0.4c0,0,0,0,0,0h17.6c0.3,0,0.5,0.2,0.5,0.4L124.2,105.5z M124.2,91.8c0,0.2-0.2,0.4-0.5,0.4c0,0,0,0,0,0h-17.6
		c-0.3,0-0.5-0.2-0.5-0.4c0,0,0,0,0,0v-5.3c0-0.2,0.2-0.4,0.5-0.4c0,0,0,0,0,0h17.6c0.3,0,0.5,0.2,0.5,0.4c0,0,0,0,0,0L124.2,91.8z
		 M124.2,78.1c0,0.2-0.2,0.4-0.5,0.4h-17.6c-0.3,0-0.5-0.2-0.5-0.4c0,0,0,0,0,0v-5.3c0-0.2,0.2-0.4,0.5-0.4c0,0,0,0,0,0h17.6
		c0.3,0,0.5,0.2,0.5,0.4L124.2,78.1z M124.2,64.4c0,0.2-0.2,0.4-0.5,0.4h-17.6c-0.3,0-0.5-0.2-0.5-0.4c0,0,0,0,0,0v-5.3
		c0-0.2,0.2-0.4,0.5-0.4h17.6c0.3,0,0.5,0.2,0.5,0.4L124.2,64.4z M124.2,50.8c0,0.2-0.2,0.4-0.5,0.4h0h-17.6c-0.3,0-0.5-0.2-0.5-0.4
		c0,0,0,0,0,0v-5.3c0-0.2,0.2-0.4,0.5-0.4c0,0,0,0,0,0h17.6c0.3,0,0.5,0.2,0.5,0.4v0L124.2,50.8z M166,132.8c0,0.2-0.2,0.4-0.5,0.4
		c0,0,0,0,0,0h-17.6c-0.3,0-0.5-0.2-0.5-0.4v-5.3c0-0.2,0.2-0.4,0.5-0.4h17.6c0.3,0,0.5,0.2,0.5,0.4c0,0,0,0,0,0V132.8z M166,119.2
		c0,0.2-0.2,0.4-0.5,0.4c0,0,0,0,0,0h-17.6c-0.3,0-0.5-0.2-0.5-0.4v-5.3c0-0.2,0.2-0.4,0.5-0.4h17.6c0.3,0,0.5,0.2,0.5,0.4
		c0,0,0,0,0,0V119.2z M166,105.5c0,0.2-0.2,0.4-0.5,0.4h-17.6c-0.3,0-0.5-0.2-0.5-0.4v-5.3c0-0.2,0.2-0.4,0.5-0.4h17.6
		c0.3,0,0.5,0.2,0.5,0.4c0,0,0,0,0,0V105.5z M166,91.8c0,0.2-0.2,0.4-0.5,0.4c0,0,0,0,0,0h-17.6c-0.3,0-0.5-0.2-0.5-0.4c0,0,0,0,0,0
		v-5.3c0-0.2,0.2-0.4,0.5-0.4c0,0,0,0,0,0h17.6c0.3,0,0.5,0.2,0.5,0.4c0,0,0,0,0,0V91.8z M166,78.1c0,0.2-0.2,0.4-0.5,0.4
		c0,0,0,0,0,0h-17.6c-0.3,0-0.5-0.2-0.5-0.4v-5.3c0-0.2,0.2-0.4,0.5-0.4h17.6c0.3,0,0.5,0.2,0.5,0.4c0,0,0,0,0,0V78.1z M166,64.5
		c0,0.2-0.2,0.4-0.5,0.4c0,0,0,0,0,0h-17.6c-0.3,0-0.5-0.2-0.5-0.4v-5.3c0-0.2,0.2-0.4,0.5-0.4h17.6c0.3,0,0.5,0.2,0.5,0.4V64.5z
		 M166,50.8c0,0.2-0.2,0.4-0.5,0.4c0,0,0,0,0,0h-17.6c-0.3,0-0.5-0.2-0.5-0.4v-5.3c0-0.2,0.2-0.4,0.5-0.4h17.6
		c0.3,0,0.5,0.2,0.5,0.4c0,0,0,0,0,0V50.8z M194.6,132.8c0,0.2-0.2,0.4-0.5,0.4h0h-17.6c-0.3,0-0.5-0.2-0.5-0.4v-5.3
		c0-0.2,0.2-0.4,0.5-0.4h17.6c0.3,0,0.5,0.2,0.5,0.4L194.6,132.8z M194.6,119.2c0,0.2-0.2,0.4-0.5,0.4c0,0,0,0,0,0h-17.6
		c-0.3,0-0.5-0.2-0.5-0.4v-5.3c0-0.2,0.2-0.4,0.5-0.4h17.6c0.3,0,0.5,0.2,0.5,0.4c0,0,0,0,0,0L194.6,119.2z M194.6,105.5
		c0,0.2-0.2,0.4-0.5,0.4h-17.6c-0.3,0-0.5-0.2-0.5-0.4v-5.3c0-0.2,0.2-0.4,0.5-0.4h17.6c0.3,0,0.5,0.2,0.5,0.4L194.6,105.5z
		 M194.6,91.8c0,0.2-0.2,0.4-0.5,0.4c0,0,0,0,0,0h-17.6c-0.3,0-0.5-0.2-0.5-0.4v-5.3c0-0.2,0.2-0.4,0.5-0.4h17.6
		c0.3,0,0.5,0.2,0.5,0.4c0,0,0,0,0,0L194.6,91.8z M194.6,78.1c0,0.2-0.2,0.4-0.5,0.4h-17.6c-0.3,0-0.5-0.2-0.5-0.4v-5.3
		c0-0.2,0.2-0.4,0.5-0.4h17.6c0.3,0,0.5,0.2,0.5,0.4v0L194.6,78.1z M194.6,64.5c0,0.2-0.2,0.4-0.5,0.4l0,0h-17.6
		c-0.3,0-0.5-0.2-0.5-0.4v-5.3c0-0.2,0.2-0.4,0.5-0.4h17.6c0.3,0,0.5,0.2,0.5,0.4L194.6,64.5z M194.6,50.8c0,0.2-0.2,0.4-0.5,0.4
		c0,0,0,0,0,0h-17.6c-0.3,0-0.5-0.2-0.5-0.4v-5.3c0-0.2,0.2-0.4,0.5-0.4h17.6c0.3,0,0.5,0.2,0.5,0.4c0,0,0,0,0,0L194.6,50.8z
		 M236.3,132.8c0,0.2-0.2,0.4-0.5,0.4h-17.6c-0.3,0-0.5-0.2-0.5-0.4v0v-5.3c0-0.2,0.2-0.4,0.5-0.4h17.6c0.3,0,0.5,0.2,0.5,0.4
		c0,0,0,0,0,0V132.8z M236.3,119.1c0,0.2-0.2,0.4-0.5,0.4h-17.6c-0.3,0-0.5-0.2-0.5-0.4c0,0,0,0,0,0v-5.3c0-0.2,0.2-0.4,0.5-0.4
		c0,0,0,0,0,0h17.6c0.3,0,0.5,0.2,0.5,0.4L236.3,119.1z M236.3,105.5c0,0.2-0.2,0.4-0.5,0.4h-17.6c-0.3,0-0.5-0.2-0.5-0.4v-5.3
		c0-0.2,0.2-0.4,0.5-0.4h17.6c0.3,0,0.5,0.2,0.5,0.4c0,0,0,0,0,0V105.5z M236.3,91.8c0,0.2-0.2,0.4-0.5,0.4c0,0,0,0,0,0h-17.6
		c-0.3,0-0.5-0.2-0.5-0.4c0,0,0,0,0,0v-5.3c0-0.2,0.2-0.4,0.5-0.4c0,0,0,0,0,0h17.6c0.3,0,0.5,0.2,0.5,0.4c0,0,0,0,0,0L236.3,91.8z
		 M236.3,78.1c0,0.2-0.2,0.4-0.5,0.4h-17.6c-0.3,0-0.5-0.2-0.5-0.4v-5.3c0-0.2,0.2-0.4,0.5-0.4l0,0h17.6c0.3,0,0.5,0.2,0.5,0.4
		L236.3,78.1z M236.3,64.4c0,0.2-0.2,0.4-0.5,0.4h-17.6c-0.3,0-0.5-0.2-0.5-0.4v0v-5.3c0-0.2,0.2-0.4,0.5-0.4h17.6
		c0.3,0,0.5,0.2,0.5,0.4c0,0,0,0,0,0V64.4z M236.3,50.8c0,0.2-0.2,0.4-0.5,0.4h-17.6c-0.3,0-0.5-0.2-0.5-0.4c0,0,0,0,0,0v-5.3
		c0-0.2,0.2-0.4,0.5-0.4c0,0,0,0,0,0h17.6c0.3,0,0.5,0.2,0.5,0.4L236.3,50.8z"/>
	<path fill="#F2F2F2" d="M126.3,7.4l-3.9,2.2l2.3-3.7c-0.7-0.5-1.5-0.7-2.3-0.7h-0.1c-0.3,0-0.5,0-0.8-0.1l-1.3,0.7l0.6-0.9
		c-0.9-0.3-1.7-0.8-2.3-1.5l-2.3,1.3l1.5-2.4c-1.4-1.4-3.2-2.3-5.2-2.3c-2.4,0-4.6,1.3-6,3.3c-0.8,1.2-2.4,1.9-4,1.9h-0.1
		c-2.7,0-4.9,2.7-4.9,6s2.2,6,4.9,6c0.6,0,1.2-0.1,1.7-0.4c1.8-0.8,4-0.8,5.9-0.1c1.6,0.6,3.4,0.6,5,0c1.8-0.7,4.1-0.7,5.8,0.1
		c0.5,0.2,1.1,0.4,1.7,0.4c2.7,0,4.9-2.7,4.9-6C127.3,9.8,127,8.6,126.3,7.4z"/>
	<path opacity="3.000000e-002" fill="#010202" enable-background="new    " d="M119,16.2c-1.4-0.2-2.8-0.1-4.2,0.4
		c-1.6,0.6-3.4,0.6-5,0c-1.8-0.7-4.1-0.7-5.9,0.1c-0.5,0.2-1.1,0.4-1.7,0.4c-2.4,0-4.4-2.1-4.8-4.9c0.5-0.3,0.9-0.7,1.2-1.1
		c1.4-2,3.6-3.3,6-3.3c2.4,0,4.6,1.2,6,3.2c0.8,1.2,2.3,1.9,4,1.9h0.1C116.6,12.9,118.2,14.2,119,16.2z"/>
	<path fill="#F2F2F2" d="M258.5,22.2l-2.7,1.5l1.6-2.6c-0.5-0.3-1-0.5-1.6-0.5h0c-0.2,0-0.4,0-0.6,0l-0.9,0.5l0.4-0.6
		c-0.7-0.2-1.2-0.6-1.6-1.1l-1.6,0.9l1-1.7c-1-1-2.2-1.6-3.7-1.6c-1.7,0-3.2,0.9-4.2,2.3c-0.6,0.9-1.7,1.4-2.8,1.3h-0.1
		c-1.9,0-3.4,1.9-3.4,4.2s1.5,4.2,3.4,4.2c0.4,0,0.8-0.1,1.2-0.3c1.3-0.6,2.8-0.6,4.1-0.1c1.1,0.4,2.4,0.4,3.5,0
		c1.3-0.5,2.8-0.5,4.1,0.1c0.4,0.2,0.8,0.3,1.2,0.3c1.9,0,3.4-1.9,3.4-4.2C259.3,23.9,259,23,258.5,22.2z"/>
	<path opacity="3.000000e-002" fill="#010202" enable-background="new    " d="M253.4,28.4c-1-0.2-2-0.1-2.9,0.3
		c-1.1,0.4-2.4,0.4-3.5,0c-1.3-0.5-2.8-0.5-4.1,0.1c-0.4,0.2-0.8,0.3-1.2,0.3c-1.7,0-3.1-1.5-3.4-3.5c0.3-0.2,0.6-0.5,0.8-0.8
		c1-1.4,2.5-2.3,4.2-2.3s3.2,0.9,4.2,2.3c0.6,0.8,1.7,1.4,2.8,1.3h0C251.7,26.1,252.9,27,253.4,28.4z"/>
	<path fill="#F2F2F2" d="M224.6,8l-1.9,1.1l1.2-1.9c-0.3-0.2-0.7-0.4-1.1-0.4h0c-0.1,0-0.3,0-0.4,0l-0.6,0.4l0.3-0.4
		c-0.5-0.1-0.8-0.4-1.1-0.8l-1.2,0.6l0.7-1.2c-0.6-0.7-1.6-1.1-2.6-1.1c-1.2,0-2.3,0.6-3,1.6c-0.4,0.6-1.2,0.9-2,0.9h-0.1
		c-1.3,0-2.4,1.3-2.4,2.9s1.1,2.9,2.4,2.9c0.3,0,0.6-0.1,0.8-0.2c0.9-0.4,2-0.4,2.9,0c0.4,0.2,0.8,0.2,1.2,0.2
		c0.4,0,0.8-0.1,1.2-0.2c0.9-0.4,2-0.3,2.9,0c0.3,0.1,0.5,0.2,0.8,0.2c1.3,0,2.4-1.3,2.4-2.9C225.1,9.2,224.9,8.6,224.6,8z"/>
	<path opacity="3.000000e-002" fill="#010202" enable-background="new    " d="M221,12.3c-0.7-0.1-1.4,0-2.1,0.2
		c-0.8,0.3-1.7,0.3-2.5,0c-0.9-0.4-2-0.3-2.9,0c-0.3,0.1-0.5,0.2-0.8,0.2c-1.2,0-2.2-1-2.4-2.4c0.2-0.2,0.4-0.3,0.6-0.6
		c0.7-1,1.8-1.6,3-1.6c1.2,0,2.2,0.6,2.9,1.6c0.4,0.6,1.2,1,2,0.9h0C219.8,10.7,220.6,11.4,221,12.3z"/>
	<path fill="none" stroke="#403E56" stroke-width="4" stroke-miterlimit="10" d="M93.9,153.2c0.5-0.8-0.1-1.7-0.7-2.3
		c-0.6-0.7-1.3-1.4-1.3-2.2c0-1.2,1.5-2,2.7-2.6c0.9-0.5,1.7-1.1,2.4-1.7c0.3-0.3,0.6-0.5,0.7-0.9c0.2-0.5,0.2-1,0.2-1.6
		c-0.1-1.8-0.2-3.5-0.3-5.3"/>
	<path fill="#58B995" d="M99.9,136.5c0-0.7-0.4-1.2-1.1-1.6l-0.5,0.8l0-1c-1.2-0.3-2.4,0.3-2.7,1.3c-0.3,1,0.3,2.1,1.5,2.4
		s2.4-0.3,2.7-1.3C99.9,137,100,136.7,99.9,136.5z"/>
	<path fill="#58B995" d="M96.1,149.5c-0.5,0.9-1.9,1.3-2.9,0.8c-0.7-0.3-1.1-0.9-1.2-1.6c0-0.3,0-0.5,0.1-0.8c0.4-1,1.7-1.5,2.8-1.1
		c0.6,0.2,1,0.6,1.3,1.1l-1.4,1l1.5-0.3C96.3,148.9,96.2,149.2,96.1,149.5z"/>
	<path fill="#58B995" d="M95,145.8c-1.2,0-2.2-0.8-2.3-1.8c0,0,0,0,0,0c0-0.3,0-0.6,0.2-0.9c0.3-0.5,0.8-0.9,1.4-1.1v0.8l0.5-0.9
		l0,0c1.2,0,2.2,0.8,2.3,1.8c0,0,0,0,0,0c0,0.2,0,0.4-0.1,0.7C96.7,145.2,95.9,145.7,95,145.8z"/>
	<path fill="#58B995" d="M100.3,142.7c-1.2,0.1-2.2-0.8-2.3-1.8s0.9-2,2.1-2c0.4,0,0.8,0.1,1.2,0.2l-0.4,0.9l0.8-0.7
		c0.4,0.3,0.7,0.8,0.7,1.3c0,0.2,0,0.4-0.1,0.5C102.1,142,101.2,142.6,100.3,142.7z"/>
	<path opacity="0.1" fill="#010202" enable-background="new    " d="M99.7,137c-0.5,0-1,0.2-1.5,0.2c-0.5,0-1.1-0.1-1.4-0.4
		c-0.1-0.2-0.3-0.4-0.4-0.6c-0.1-0.2-0.3-0.3-0.5-0.5c-0.5,0.9-0.1,2.1,1,2.6c1.1,0.5,2.4,0.1,2.9-0.8c0.1-0.1,0.1-0.3,0.2-0.5
		C99.8,137,99.7,137,99.7,137z"/>
	<path opacity="0.1" fill="#010202" enable-background="new    " d="M100.3,142.7c-1.2,0-2.2-0.8-2.3-1.8c0-0.3,0.1-0.6,0.2-0.9
		c0.2,0.1,0.3,0.2,0.4,0.4c0.1,0.2,0.3,0.4,0.4,0.6c0.3,0.3,0.9,0.5,1.4,0.4c0.5,0,1-0.2,1.6-0.2c0.1,0,0.1,0,0.2,0
		C102.1,142,101.2,142.6,100.3,142.7z"/>
	<path opacity="0.1" fill="#010202" enable-background="new    " d="M95,145.8c-1.2,0-2.2-0.8-2.3-1.8c0,0,0,0,0,0
		c0-0.3,0-0.6,0.2-0.9c0.2,0.1,0.3,0.2,0.5,0.4c0.1,0.2,0.3,0.4,0.5,0.6c0.4,0.4,1,0.5,1.5,0.5c0.6,0,1.1-0.1,1.6-0.2
		C96.7,145.2,95.9,145.7,95,145.8z"/>
	<path opacity="0.1" fill="#010202" enable-background="new    " d="M96.1,149.5c-0.5,0.9-1.9,1.3-2.9,0.8c-0.7-0.3-1.1-0.9-1.2-1.6
		c0-0.3,0-0.5,0.1-0.8c0.2,0.1,0.3,0.2,0.5,0.4c0.2,0.2,0.4,0.5,0.6,0.7c0.4,0.4,1.2,0.5,1.8,0.6C95.3,149.5,95.7,149.5,96.1,149.5z
		"/>
	<path fill="#676480" d="M90.6,152.9c0,0,1.7-0.6,2.2-0.9c0.5-0.3,2.6-0.7,2.8-0.2c0.1,0.5,2.6,2.6,0.6,2.6c-1.9,0-4.5,0.3-5,0
		C90.7,154.1,90.6,152.9,90.6,152.9z"/>
	<path opacity="0.2" fill="#010202" enable-background="new    " d="M96.3,154.2c-1.9,0-4.5,0.3-5,0c-0.4-0.2-0.6-1-0.6-1.3h-0.1
		c0,0,0.1,1.2,0.6,1.5c0.5,0.3,3.1,0,5,0c0.6,0,0.8-0.2,0.7-0.4C96.9,154.1,96.7,154.2,96.3,154.2z"/>
	<path fill="none" stroke="#403E56" stroke-width="4" stroke-miterlimit="10" d="M213.9,153.3c-0.3-0.5,0-1.1,0.4-1.6
		c0.4-0.5,0.9-0.9,0.9-1.5c0-0.8-1-1.3-1.8-1.7c-0.6-0.3-1.1-0.7-1.6-1.1c-0.2-0.2-0.4-0.4-0.5-0.6c-0.1-0.3-0.2-0.7-0.2-1
		c0-1.2,0.1-2.4,0.2-3.5"/>
	<path fill="#58B995" d="M209.8,142.1c0-0.4,0.3-0.8,0.7-1.1l0.3,0.6l0-0.7c0.2,0,0.3-0.1,0.5,0c0.8,0,1.4,0.6,1.4,1.3
		c0,0.7-0.7,1.3-1.5,1.2C210.4,143.4,209.8,142.8,209.8,142.1C209.8,142.1,209.8,142.1,209.8,142.1L209.8,142.1z"/>
	<path fill="#58B995" d="M212.4,150.8c0.4,0.6,1.3,0.9,2,0.6s1-1.1,0.6-1.7c-0.4-0.6-1.3-0.9-2-0.6c-0.3,0.1-0.6,0.4-0.7,0.7
		l0.9,0.7l-1-0.2C212.3,150.4,212.3,150.6,212.4,150.8z"/>
	<path fill="#58B995" d="M213.2,148.3c0.8,0,1.5-0.5,1.5-1.2c0,0,0,0,0,0c0-0.2,0-0.4-0.1-0.6c-0.2-0.3-0.5-0.6-0.9-0.7v0.5
		l-0.3-0.6l0,0c-0.8,0-1.5,0.5-1.5,1.2c0,0.1,0,0.3,0.1,0.4C212,147.9,212.5,148.3,213.2,148.3z"/>
	<path fill="#58B995" d="M209.6,146.2c0.8,0,1.5-0.5,1.5-1.2c0-0.7-0.6-1.3-1.4-1.3c-0.3,0-0.5,0-0.8,0.2l0.3,0.6l-0.5-0.4
		c-0.3,0.2-0.5,0.5-0.5,0.9c0,0.1,0,0.2,0,0.4C208.4,145.8,209,146.2,209.6,146.2z"/>
	<path opacity="0.1" fill="#010202" enable-background="new    " d="M210,142.4c0.3,0,0.7,0.1,1,0.1c0.3,0,0.7-0.1,0.9-0.3
		c0.1-0.1,0.2-0.3,0.3-0.4c0.1-0.1,0.2-0.2,0.4-0.3c0.1,0.2,0.2,0.4,0.2,0.6c0,0.7-0.7,1.3-1.5,1.2c-0.7,0-1.2-0.4-1.4-1
		C209.9,142.4,210,142.4,210,142.4z"/>
	<path opacity="0.1" fill="#010202" enable-background="new    " d="M209.6,146.2c0.8,0,1.5-0.5,1.5-1.2c0-0.2,0-0.4-0.1-0.6
		c-0.1,0.1-0.2,0.2-0.3,0.3c-0.1,0.1-0.2,0.3-0.3,0.4c-0.3,0.2-0.6,0.3-1,0.3c-0.4,0-0.7-0.1-1-0.1c0,0-0.1,0-0.1,0
		C208.4,145.8,209,146.2,209.6,146.2z"/>
	<path opacity="0.1" fill="#010202" enable-background="new    " d="M213.2,148.3c0.8,0,1.5-0.5,1.5-1.2c0,0,0,0,0,0
		c0-0.2,0-0.4-0.1-0.6c-0.1,0.1-0.2,0.2-0.3,0.3c-0.1,0.2-0.2,0.3-0.3,0.4c-0.3,0.2-0.7,0.3-1,0.3c-0.4,0-0.7-0.1-1.1-0.1
		C212,147.9,212.6,148.3,213.2,148.3z"/>
	<path opacity="0.1" fill="#010202" enable-background="new    " d="M212.4,150.8c0.4,0.6,1.3,0.9,2,0.5c0.7-0.3,0.9-1,0.7-1.6
		c-0.1,0.1-0.2,0.2-0.3,0.3c-0.1,0.2-0.3,0.3-0.4,0.5c-0.3,0.2-0.8,0.4-1.2,0.4C212.9,150.8,212.7,150.8,212.4,150.8z"/>
	<path fill="#676480" d="M216.1,152.9c0,0-1.2-0.3-1.5-0.5c-0.3-0.2-1.8-0.5-1.9-0.1s-1.7,1.7-0.4,1.7c1.3,0,3,0.1,3.4-0.1
		C216,153.8,216.1,152.9,216.1,152.9z"/>
	<path opacity="0.2" fill="#010202" enable-background="new    " d="M212.3,154c1.3,0,3,0.1,3.4-0.1c0.3-0.1,0.4-0.7,0.4-0.9h0
		c0,0-0.1,0.8-0.4,1c-0.3,0.2-2.1,0.1-3.4,0.1c-0.4,0-0.5-0.1-0.5-0.3C211.8,153.9,212,154,212.3,154z"/>
	<rect x="106.7" y="154.1" fill="#403E56" width="114.4" height="0.4"/>
	<rect x="225.1" y="154.1" fill="#403E56" width="60.7" height="0.4"/>
	<rect x="64.6" y="154.1" fill="#403E56" width="38" height="0.4"/>
</g>
<g>
	<title>pedestrian crossing</title>
	<path fill="#6A657E" d="M103.9,164l-51.4,54c-9.5-1.6-18.7-4-27.8-7.2c-7-2.4-13.7-5.5-19.2-9.2l55.4-39.4L103.9,164z"/>
	<path fill="#6A657E" d="M576.2,207.7c-1.6,1.6-3.5,3.1-5.8,4.4c-9.5,5.8-23.1,8.1-36.2,9.5c-2.9,0.4-5.9,0.6-8.7,0.9l-53.6-57.3
		l42-1.8L576.2,207.7z"/>
	<path fill="#6A657E" d="M173.4,166.2l-0.1,1.6l0,0v0.5l-4.5,32.1l0,0l-0.1,3.7l-0.1,1.6l0,0l-2.1,21.8c-21.9-0.1-43.8-1.5-65.6-2.4
		l30.2-58.9H173.4L173.4,166.2L173.4,166.2z"/>
	<path fill="#6A657E" d="M470.9,225.1c-2.7,0.1-5.3,0.1-8,0.1c-18.6,0.5-37.2,2.6-55.7,2.8l-21.6-61.7h40.6L470.9,225.1z"/>
	<path opacity="0.1" fill="#040506" enable-background="new    " d="M103.9,164l-51.4,54c-9.5-1.6-18.7-4-27.8-7.2
		c-7-2.4-13.7-5.5-19.2-9.2l55.4-39.4L103.9,164z"/>
	<path opacity="0.1" fill="#040506" enable-background="new    " d="M576.2,207.7c-1.6,1.6-3.5,3.1-5.8,4.4
		c-9.5,5.8-23.1,8.1-36.2,9.5c-2.9,0.4-5.9,0.6-8.7,0.9l-53.6-57.3l42-1.8L576.2,207.7z"/>
	<path opacity="0.1" fill="#040506" enable-background="new    " d="M173.4,166.2l-0.1,1.6l0,0v0.5l-4.5,32.1l0,0l-0.1,3.7l-0.1,1.6
		l0,0l-2.1,21.8c-21.9-0.1-43.8-1.5-65.6-2.4l30.2-58.9H173.4L173.4,166.2L173.4,166.2z"/>
	<path opacity="0.1" fill="#040506" enable-background="new    " d="M470.9,225.1c-2.7,0.1-5.3,0.1-8,0.1
		c-18.6,0.5-37.2,2.6-55.7,2.8l-21.6-61.7h40.6L470.9,225.1z"/>
	<ellipse opacity="0.1" fill="#5961A9" enable-background="new    " cx="522.4" cy="159.9" rx="6.6" ry="1"/>
	<path fill="#A8A8A8" d="M518,155.3c0,0,3.7-0.1,4.9-0.7c1.1-0.7,5.8-1.6,6-0.5c0.2,1.1,5.6,5.5,1.3,5.6c-4.3,0.1-9.9-0.6-11-1.1
		C518.1,158.1,518,155.3,518,155.3z"/>
	<path opacity="0.2" fill="#040506" enable-background="new    " d="M530.3,159.2c-4.3,0-9.9-0.6-10.9-1.1c-0.9-0.5-1.2-2.1-1.3-2.8
		H518c0,0,0.2,2.6,1.3,3.2c1.1,0.6,6.7,1.2,11,1.1c1.2,0,1.6-0.4,1.6-1C531.7,159.1,531.3,159.2,530.3,159.2z"/>
	<g>
		<path fill="none" stroke="#595865" stroke-width="2" stroke-miterlimit="10" d="M33.8,159.2c0,0-3-16.3-13.8-24.3
			c-4.6-3.3-8-7.9-9.5-13.1c-0.7-2.5-1.1-5.1-1.4-7.5"/>
		<path fill="#5961A9" d="M2.5,109c0.9,1.7,7,5.2,7,5.2s0.8-6.6-0.1-8.3c-1-1.8-3.3-2.5-5.2-1.7C2.3,105.1,1.5,107.2,2.5,109z"/>
		<path fill="#5961A9" d="M1.9,121.2c1.8,1,9,0.9,9,0.9s-3.2-6-5-6.9c-1.8-1-4.1-0.5-5.3,1.2c-1.1,1.6-0.5,3.6,1.1,4.7
			C1.8,121,1.8,121.2,1.9,121.2z"/>
		<path fill="#5961A9" d="M10.8,137.4c2.2,0,8.2-3.4,8.2-3.4s-6-3.6-8.1-3.6c-2.2,0-3.9,1.6-3.9,3.5C7,135.9,8.7,137.4,10.8,137.4z"
			/>
		<path fill="#5961A9" d="M20.6,148.5c2,0.4,8.8-2.1,8.8-2.1s-5.3-4.6-7.4-4.8c-2-0.3-4.1,0.9-4.5,2.8
			C17.2,146.4,18.5,148.2,20.6,148.5z"/>
		<path fill="#5961A9" d="M18.3,119.2c-0.7,1.8-6.4,5.9-6.4,5.9s-1.5-6.5-0.8-8.3c0.7-1.8,2.9-2.7,4.9-2.1
			C17.9,115.3,18.9,117.4,18.3,119.2z"/>
		<path fill="#5961A9" d="M29.5,132.1c-1.3,1.6-8,3.9-8,3.9s0.7-6.6,2-8.1c1.4-1.6,3.6-1.8,5.3-0.7c1.5,1,2,3.2,0.9,4.7
			C29.6,132.1,29.5,132.1,29.5,132.1z"/>
		<path fill="#5961A9" d="M38.6,146.2c-0.9,1.7-7.1,5.1-7.1,5.1s-0.6-6.6,0.4-8.3c1.1-1.7,3.2-2.5,5.1-1.6c1.8,0.8,2.6,2.8,1.7,4.6
			C38.6,146.1,38.6,146.1,38.6,146.2z"/>
		<path opacity="0.25" fill="#040506" enable-background="new    " d="M2.5,109c0.9,1.7,7,5.2,7,5.2s0.8-6.6-0.1-8.3
			c-1-1.8-3.3-2.5-5.2-1.7C2.3,105.1,1.5,107.2,2.5,109z"/>
		<path opacity="0.25" fill="#040506" enable-background="new    " d="M1.9,121.2c1.8,1,9,0.9,9,0.9s-3.2-6-5-6.9
			c-1.8-1-4.1-0.5-5.3,1.2c-1.1,1.6-0.5,3.6,1.1,4.7C1.8,121,1.8,121.2,1.9,121.2z"/>
		<path opacity="0.25" fill="#040506" enable-background="new    " d="M10.8,137.4c2.2,0,8.2-3.4,8.2-3.4s-6-3.6-8.1-3.6
			c-2.2,0-3.9,1.6-3.9,3.5C7,135.9,8.7,137.4,10.8,137.4z"/>
		<path opacity="0.25" fill="#040506" enable-background="new    " d="M20.6,148.5c2,0.4,8.8-2.1,8.8-2.1s-5.3-4.6-7.4-4.8
			c-2-0.3-4.1,0.9-4.5,2.8C17.2,146.4,18.5,148.2,20.6,148.5z"/>
		<path opacity="0.25" fill="#040506" enable-background="new    " d="M18.3,119.2c-0.7,1.8-6.4,5.9-6.4,5.9s-1.5-6.5-0.8-8.3
			c0.7-1.8,2.9-2.7,4.9-2.1C17.9,115.3,18.9,117.4,18.3,119.2z"/>
		<path opacity="0.25" fill="#040506" enable-background="new    " d="M29.5,132.1c-1.3,1.6-8,3.9-8,3.9s0.7-6.6,2-8.1
			c1.4-1.6,3.6-1.8,5.3-0.7c1.5,1,2,3.2,0.9,4.7C29.6,132.1,29.5,132.1,29.5,132.1z"/>
		<path opacity="0.25" fill="#040506" enable-background="new    " d="M38.6,146.2c-0.9,1.7-7.1,5.1-7.1,5.1s-0.6-6.6,0.4-8.3
			c1.1-1.7,3.2-2.5,5.1-1.6c1.8,0.8,2.6,2.8,1.7,4.6C38.6,146.1,38.6,146.1,38.6,146.2z"/>
		<path fill="none" stroke="#595865" stroke-width="2" stroke-miterlimit="10" d="M33.5,158.8c0,0,4.5-16-2-27.5
			c-2.7-4.7-3.8-10.3-2.8-15.6c0.5-2.5,1.2-5.1,2.2-7.4"/>
		<path fill="#5961A9" d="M26.8,101c0.1,1.9,4.1,7.4,4.1,7.4s3.6-5.7,3.5-7.7s-1.7-3.4-3.9-3.4S26.8,99.2,26.8,101z"/>
		<path fill="#5961A9" d="M21,112.1c1.2,1.6,7.8,4.2,7.8,4.2s-0.4-6.6-1.5-8.2c-1.3-1.6-3.6-2.1-5.3-0.9c-1.6,1-2.2,3.1-1.1,4.7
			C20.8,111.8,20.9,111.9,21,112.1z"/>
		<path fill="#5961A9" d="M21.9,130.3c2,0.8,9,0,9,0s-3.9-5.5-5.8-6.4c-1.9-0.9-4.2-0.1-5,1.7C19.2,127.4,20,129.5,21.9,130.3z"/>
		<path fill="#5961A9" d="M26,144.1c1.8,1,8.9,1.3,8.9,1.3s-2.8-6.1-4.6-7.2c-1.8-1-4.1-0.7-5.3,0.9c-1.1,1.6-0.8,3.6,0.7,4.7
			C25.9,144.1,26,144.1,26,144.1z"/>
		<path fill="#5961A9" d="M36.7,116.3c-1.5,1.3-8.4,3-8.4,3s1.5-6.5,2.9-7.8c1.5-1.3,3.9-1.4,5.4-0.1c1.5,1.3,1.5,3.4,0.4,4.7
			C36.9,116.2,36.8,116.2,36.7,116.3z"/>
		<path fill="#5961A9" d="M41.3,132.5c-1.8,0.9-9,0.6-9,0.6s3.5-5.8,5.3-6.6c1.8-0.9,4.1-0.4,5.1,1.3c0.9,1.7,0.4,3.6-1.3,4.7
			C41.5,132.4,41.4,132.4,41.3,132.5z"/>
		<path fill="#5961A9" d="M43.4,148.7c-1.6,1.2-8.8,1.9-8.8,1.9s2.4-6.2,4.1-7.4c1.7-1.3,4.1-0.9,5.3,0.6c1.2,1.4,1.1,3.6-0.4,4.7
			C43.6,148.6,43.6,148.6,43.4,148.7z"/>
		<ellipse opacity="0.1" fill="#5961A9" enable-background="new    " cx="30.9" cy="167.4" rx="8.4" ry="1.3"/>
		<path fill="#A8A8A8" d="M25.2,160.8c0,0,4.9-0.1,6.4-1.2s7.4-2.2,7.8-0.6c0.4,1.7,7.2,8.1,1.8,8.1c-5.5,0.1-12.7-0.8-14.1-1.7
			C25.4,164.6,25.2,160.8,25.2,160.8z"/>
		<path opacity="0.2" fill="#040506" enable-background="new    " d="M41.1,166.7c-5.5,0.1-12.7-0.8-14.1-1.7c-1.1-0.7-1.5-3-1.7-4
			h-0.1c0,0,0.4,3.9,1.8,4.7c1.5,0.9,8.7,1.7,14.1,1.7c1.5,0,2.2-0.6,2-1.3C42.9,166.3,42.3,166.7,41.1,166.7z"/>
	</g>
	<path fill="#6A657E" d="M209.6,229l4.3-62.7h41.6l2.6,62.9"/>
	<path opacity="0.1" fill="#040506" enable-background="new    " d="M209.6,229l4.3-62.7h41.6l2.6,62.9"/>
	<path fill="#6A657E" d="M304,229l0.9-62.6h37.3l8.6,62.9"/>
	<path opacity="0.1" fill="#040506" enable-background="new    " d="M304,229l0.9-62.6h37.3l8.6,62.9"/>
</g>
<g>
	<polygon fill="#F6B6B9" points="487.4,179.5 490.8,179.5 492.4,166.5 487.4,166.5 	"/>
	<path fill="#313043" d="M486.6,178.4h6.7l0,0c2.3,0,4.2,1.9,4.2,4.2v0.1h-10.9L486.6,178.4z"/>
	<polygon fill="#F6B6B9" points="469.1,179.5 472.5,179.5 474.1,166.5 469.1,166.5 	"/>
	<path fill="#313043" d="M468.3,178.4h6.7l0,0c2.3,0,4.2,1.9,4.2,4.2v0.1h-10.9L468.3,178.4z"/>
	<polygon fill="#313043" points="467.8,120.7 467.8,155 468.6,177.1 475.8,177.1 478.2,135.4 483,152.6 486,176.6 494.7,176.2 
		488.9,120.7 	"/>
	<ellipse fill="#F6B7BA" cx="476.1" cy="84.7" rx="5.2" ry="5.2"/>
	<polygon fill="#595FA8" points="473.9,91.2 472.5,92.7 471.2,122 486.7,121.5 483,96 479.7,92.8 478.1,91.2 	"/>
	<path fill="#413E56" d="M471.5,94.4l1.2-1.9l0.4,4.1c0,0,2.8,9.1,2.6,17.1c-0.2,8,1.1,26.9-0.7,27.1c-1.7,0.2-9.1,0.7-9.1-0.9
		S465.5,98,465.5,98L471.5,94.4z"/>
	<path fill="#413E56" d="M479.4,92.5l3,2.3l6.5,2.5c0,0,0,27.8,1.3,34.3c1.3,6.5,3.7,7.2,0.7,7.4c-3,0.2-2.8-0.9-2.8-0.9
		s2.2-10.8-0.7-13c-2.8-2.2-8.3-14.7-7.8-21.7C479.9,96.4,478.9,92.5,479.4,92.5z"/>
	<path fill="#313043" d="M471.2,86.3c0,0,0.4-0.8,0.3-3.4s3.9-1.1,7.2-1.4c3.3-0.2,2.6,4.3,2.6,4.3s0.2-0.3,0.8-2.5
		c0.6-2.2-0.7-4.4-0.7-4.4c-0.3-2.3-2.2-1.6-2.2-1.6c0.9,0.3,0.7,1.1,0.7,1.1c-0.8-1.3-2.6-0.6-2.6-0.6c-2.5-1.5-5,0.5-5,0.5
		c-3,0.7-1.2,3-1.2,3C468.2,82.9,471.2,86.3,471.2,86.3z"/>
	<path fill="#F6B6B9" d="M465.8,136.8c0.8-0.9,0.8-2.3-0.1-3.1c-0.1-0.1-0.2-0.2-0.3-0.2l0.9-4.9l-2.9-1.3l-1.2,7
		c-0.6,1.1-0.2,2.4,0.8,3C464,137.8,465.1,137.6,465.8,136.8L465.8,136.8z"/>
	<path fill="#413E56" d="M466.4,98.1l-0.6-0.3c0,0-3.1,1.2-2.9,2c0.2,0.9-1.7,31.2-1.1,32.3c0.7,1.1,5.9,0.2,5.9,0.2L466.4,98.1z"/>
	<path fill="#F6B6B9" d="M491.3,134.8c-1-0.8-1.1-2.1-0.3-3.1c0.1-0.1,0.2-0.2,0.3-0.3l-1.6-4.8l2.7-1.7l2.2,6.7
		c0.7,1,0.6,2.4-0.4,3.1C493.2,135.5,492.1,135.4,491.3,134.8L491.3,134.8z"/>
	<path fill="#413E56" d="M488.7,130.7c0,0,5.3,0.1,5.8-1c0.5-1.2-5.7-31-5.6-31.9c0.1-0.9-3.2-1.6-3.2-1.6l-0.5,0.4L488.7,130.7z"/>
	<path fill="#F6B6B9" d="M512.1,132l-3.3-16l-1.4-11.8l-3.2,2.1l0.4,13l5.1,13.5c-0.5,0.9-0.1,1.9,0.7,2.4c0.9,0.5,1.9,0.1,2.4-0.7
		C513.4,133.5,513,132.5,512.1,132C512.2,132,512.1,132,512.1,132L512.1,132z"/>
	<path fill="#F6B6B9" d="M481.5,133.2l0.9-16.3l-0.3-11.9l4.2,1.6l0.7,13l-3.1,14c0.6,0.8,0.4,1.9-0.4,2.5s-1.9,0.4-2.5-0.4
		C480.5,134.9,480.7,133.8,481.5,133.2L481.5,133.2L481.5,133.2z"/>
	<polygon fill="#F6B6B9" points="490.3,180.7 492.5,180.7 493.5,172.4 490.3,172.4 	"/>
	<path fill="#313043" d="M489.8,180h4.2l0,0c1.5,0,2.7,1.2,2.7,2.7v0.1h-6.9V180z"/>
	<polygon fill="#F6B6B9" points="498.5,179.7 500.6,180 502.9,172 499.8,171.5 	"/>
	<path fill="#313043" d="M498,178.9l4.2,0.6l0,0c1.5,0.2,2.5,1.6,2.3,3.1v0.1l-6.9-1.1L498,178.9z"/>
	<path fill="#313043" d="M489.7,178.2L489.7,178.2l-7.8-42.1c-0.6-3.4-0.1-6.9,1.4-9.9l4.7-9.4l14.1,1.9l1.7,12l5.9,22.9l0,0
		l-7.6,24l-5,0.3l4.4-21.4l-8.1-18.3l0.6,39.7L489.7,178.2z"/>
	<path fill="#595FA8" d="M502.4,120.2L502.4,120.2c-0.1-0.1-1.8-2.7-6.5-1c-4.8,1.8-8.4-1.6-8.5-1.7l0,0l-1.1-9.6l-1.3-7.8l4-0.7
		l2-1.2l7.9-0.1l2.1,1.6l3.4,0.4l0.3,7.1l0,0L502.4,120.2z"/>
	<path fill="#595FA8" d="M503.6,107.9v-6.1l1-1.7l0,0c0.8,0,1.5,0.4,2,0.9c1,1,1.4,2.6,1.3,4.8l0,0L503.6,107.9z"/>
	<path fill="#595FA8" d="M486.8,107.2l-4.9-0.6v-0.1c-0.2-2.4,0.3-4.2,1.3-5.4c0.5-0.6,1.2-1,2-1.1l0,0l1.3,1.2L486.8,107.2z"/>
	<path fill="#313043" d="M501,95.7h-12.9c-0.6,0-1-0.4-1-1v-4.6c0-4.1,3.3-7.4,7.4-7.4c4.1,0,7.4,3.3,7.5,7.4l0,0v4.6
		C502,95.2,501.5,95.7,501,95.7z"/>
	<ellipse fill="#F6B6B9" cx="494.8" cy="90.2" rx="5.5" ry="5.4"/>
	<path fill="#313043" d="M500,90.4h-7.2c-0.3,0-0.5-0.2-0.6-0.5l-0.1-0.7c0-0.2-0.2-0.3-0.4-0.3c-0.1,0-0.2,0.1-0.3,0.2l-0.5,1
		c-0.1,0.2-0.3,0.3-0.5,0.3h-1.1c-0.3,0-0.6-0.2-0.6-0.6c0,0,0,0,0-0.1l0.4-4.5c0-0.2,0.1-0.4,0.3-0.5c3.3-1.5,6.6-1.5,9.9,0
		c0.2,0.1,0.3,0.2,0.3,0.4l0.6,4.5C500.6,90,500.4,90.3,500,90.4C500.1,90.4,500.1,90.4,500,90.4L500,90.4z"/>
	<path fill="#A1636C" d="M503,132.5c1-0.4,1.6-1.5,1.2-2.5c0-0.1-0.1-0.2-0.1-0.3l4.7-5.3l-3.6-0.5l-3.9,5.1
		c-0.9,0.6-1.2,1.8-0.6,2.8C501.1,132.5,502.1,132.8,503,132.5z"/>
	<polygon fill="#A1636C" points="508.6,179.5 505.4,179.5 503.8,167 508.6,167 	"/>
	<path fill="#313043" d="M509.5,182.7H499v-0.1c0-2.3,1.8-4.1,4.1-4.1l0,0h6.4V182.7z"/>
	<polygon fill="#A1636C" points="525.7,176.8 522.6,177.8 517.4,166.3 522,164.9 	"/>
	<path fill="#313043" d="M527.4,179.6l-10,3.1v-0.1c-0.7-2.1,0.5-4.4,2.7-5.1l0,0l6.1-1.9L527.4,179.6z"/>
	<path id="f1066638-9b86-4717-bcc8-db5f2da468bd-217_2_" fill="#E6E6E6" d="M506.1,121.8l-4.8,5.5l3.8,0.3L506.1,121.8z"/>
	<path id="af262a15-c86f-47ab-a56c-b4ab6ae66702-218_2_" fill="#313043" d="M504.2,128.9c0,0-1.7,0.8-1.9,4.6
		c-0.2,3.8,0.6,13.6,0.6,13.6s-0.8,4.4,0,8.4s-0.8,18.4,0.2,18.4c1,0,6.5,0.6,6.7,0s0.4-10,0.4-10s1.7-4.8,0-7.7
		c0,0,5.9,10.2,9.6,18c0.8,1.7,7.1-0.2,6.1-2.1c-1-1.9-3.6-10.4-3.6-10.4s-1.9-6.3-5.2-9l1.7-13.4c0,0,3.6-9,1.5-10.2
		C518.3,127.7,504.2,128.9,504.2,128.9z"/>
	<ellipse id="fbcb1e7b-18f5-4394-a5dd-21324d3d96d7_2_" fill="#A2636B" cx="510.5" cy="89.4" rx="5.4" ry="5.4"/>
	<path id="f91d5893-36b1-4b4e-ad68-e940b5b31ca4-219_2_" fill="#E5E5E5" d="M516.6,95.3l-6.8,4c0,0-2.6,1.5-3.6,4
		c-1,2.7-0.4,6.4,0,7.3c0.8,1.7-0.4,5.8-0.4,5.8l-1,9.6c0,0-3.8,3.5-0.8,4c2.9,0.4,8.2-0.2,11.3,0s6.7,0.6,5.7-1.5
		c-1-2.1-2.3-3.5-1-7.7c1-3.3,0.9-15.5,0.9-20.6c0-1.4-0.8-2.8-2-3.5L516.6,95.3z"/>
	<path id="ab5b7163-34aa-4542-8f5b-346ef47d8115-220_2_" opacity="0.1" fill="#020304" enable-background="new    " d="M513.6,101.9
		l0.6,12.7l-6.1,12.3l-1-0.4l6.3-11.5L513.6,101.9z"/>
	<path id="a0747de6-ab5b-4f6b-918c-fa029658d911-221_2_" opacity="0.1" fill="#020304" enable-background="new    " d="M520.5,117.3
		v-1.5l-7.1,11.7L520.5,117.3z"/>
	<path id="fa11fa6f-8d0b-4738-bd9e-1b384a1b66c7-222_2_" fill="#313043" d="M506.7,84.4l-0.9-0.4c0,0,1.9-2.1,4.5-1.9l-0.7-0.8
		c0,0,1.8-0.7,3.4,1.2c0.9,1,1.9,2.2,2.5,3.5h1l-0.4,0.9l1.4,0.9l-1.4-0.2c0.1,0.8,0.1,1.5-0.1,2.3v0.7c0,0-1.7-2.6-1.7-2.9v0.9
		c0,0-0.9-0.8-0.9-1.3l-0.5,0.6l-0.2-1l-3,1l0.5-0.8l-1.9,0.3l0.7-1c0,0-2.1,1.2-2.2,2.2s-1.1,2.2-1.1,2.2l-0.5-0.9
		C505,89.8,504.3,85.8,506.7,84.4z"/>
	<path fill="#A1636C" d="M510.2,133.1c1-0.5,1.3-1.8,0.7-2.7c-0.1-0.1-0.1-0.2-0.2-0.3l3.7-6l-3.7,0.2l-2.9,5.7
		c-0.8,0.8-0.8,2-0.1,2.8C508.4,133.4,509.4,133.6,510.2,133.1L510.2,133.1z"/>
	<path id="b6ea18e9-d072-4df0-8b87-7f4e4805b6d9-223_2_" fill="#E5E5E5" d="M518.5,98l1.6-0.3c0,0,4.7,3.4,3.2,10.3
		c-1.5,6.9-8,17.3-8,17.3s-1.5,1.9-1.9,2.3c-0.4,0.4-1.3,0-0.8,0.6c0.4,0.6-0.6,1-0.6,1s-4.6,0-4.2-1.7c0.4-1.7,7.5-13.6,7.5-13.6
		l-1-11.1C514.3,103,513.5,97.6,518.5,98z"/>
	<path fill="#413E56" d="M418.2,87L418.2,87l-2.2,0.1c-0.7,0-1.3,0.6-1.3,1.3l0,0V93c0,0.7,0.6,1.3,1.3,1.3l0,0h12
		c0.7,0,1.3-0.6,1.3-1.3l0,0v-4.7c0-0.7-0.6-1.3-1.3-1.3l0,0h-8.3l0,0H418.2z"/>
	<path fill="#313043" d="M450,106.1c0.1,6.8-4.3,5.8-9.6,5.8c-5.3,0-9.2,1-9.6-5.8c-0.9-10.8,2-18.9,9.5-18.9
		C448.1,87.2,449.9,95.3,450,106.1z"/>
	<path fill="#A2636B" d="M420.8,91.7c0.7,1.3,0.1,2.9-1.2,3.5c-0.1,0.1-0.3,0.1-0.4,0.2l-0.5,9.4l-4-2.9l1.1-8.5
		c-0.3-1.4,0.6-2.9,2-3.2C419,90,420.3,90.6,420.8,91.7L420.8,91.7z"/>
	<path fill="#A2636B" d="M456.4,144.8c0.8-1.2,0.5-2.9-0.7-3.7c-0.1-0.1-0.3-0.2-0.4-0.2l0.7-9.4l-4.3,2.4v8.5
		c-0.5,1.4,0.2,2.9,1.6,3.4C454.5,146.3,455.8,145.8,456.4,144.8L456.4,144.8z"/>
	<polygon fill="#A2636B" points="436.7,190 439.9,190 441.5,177.5 436.7,177.5 	"/>
	<path fill="#313043" d="M435.9,188.9h6.4l0,0c2.2,0,4.1,1.8,4.1,4.1l0,0v0.1H436L435.9,188.9z"/>
	<polygon fill="#A2636B" points="457.3,190 460.6,190 462.1,177.5 457.3,177.5 	"/>
	<path fill="#313043" d="M456.5,188.9h6.4l0,0c2.2,0,4.1,1.8,4.1,4.1l0,0v0.1h-10.4L456.5,188.9z"/>
	<path fill="#595FA8" d="M455.5,139.6h-0.1c-1.2-0.2-2.4-0.4-3.4-0.7h-0.1v-0.1c0-4.8,0-9.5-0.1-14.4c-2.5-5-3.6-10.7-3-16.3V108
		l0,0c0.9-0.6,2.1-0.7,3.2-0.2c1,0.5,1.7,1.5,1.8,2.6c1,5.2,1.9,10.6,3,15.9l0,0l0,0c-0.4,4.3-0.8,8.8-1.3,13.1V139.6z"/>
	<path fill="#313043" d="M453.4,185.5L453.4,185.5c-1.5-7.2-3-13.1-4.4-18.7c-1.7-6.7-3.3-13.1-4.9-21.4c0.2,10.4,0.7,17.9,1.3,26.5
		c0.3,3.9,0.5,7.9,0.8,12.6v0.1h-0.1c-5.1-0.1-10.3-0.4-15.3-0.7h-0.1v-0.1c1-14,1.2-23.1,1.5-29.7c0.5-14,0.5-16.1,5.8-28
		c0.2-0.4,1.4-1.8,2.7-1.6l10.3,1.6v0.1c0.3,1.5,1.7,5.9,3.7,12c4.3,13.1,10.7,32.9,12.7,44.6v0.1h-0.1c-2.9,0.4-5,0.8-7.1,1.3
		c-1.9,0.4-3.9,0.8-6.6,1.2L453.4,185.5z"/>
	<path fill="#595FA8" d="M444.4,129.9c-2.7,0-5.5-0.9-7.4-2.8c-0.6-0.4-1-1-1.1-1.7c-0.1-0.6,0.1-1.3,0.5-1.8
		c-1.9-2.3-3.9-4.7-5.8-7.1l-0.1-0.1l0.1-0.1c1.2-2.3,2.5-4.8,3.7-7.2c0.2-0.4,0.6-0.7,1-0.8c0.4-0.1,0.8,0,1.1,0.3v-0.1
		c0.1-1.2,0.1-2.4,0.2-3.6v-0.1h0.1c2.4-0.1,4.8-0.1,7.2-0.2h0.1l1.2,2.6c1.9-0.2,3.9,0.2,5.6,1.1h0.1v0.1
		c-0.5,4.5-0.4,9.1,0.3,13.6c0,2.1-0.1,4.2-0.5,5.8l0,0l0,0C448.9,129.2,446.7,129.9,444.4,129.9z"/>
	<path fill="#595FA8" d="M434.3,118.4l-0.2-0.1c-1.8-0.9-3.7-1.9-5.5-2.9h-0.2c-4.7-0.9-7.3-1.5-11.6-3.9l0,0l0,0
		c-2.1-4.1-2.7-7.6-2.2-13.1v-0.1h0.1c0.5,0,1.2-0.1,1.9-0.1c0.7,0,1.4,0,1.9-0.1h0.1v0.1c0.6,1.7,1,3.3,1.5,5
		c0.5,1.7,1,3.5,1.7,5.5c2.4,0.7,8.7,0.5,10.7,0.2c1.2-0.1,2.4,0.4,3.1,1.4l0,0v0.1c-0.4,2.6-0.9,5.3-1.4,7.9L434.3,118.4z"/>
	<path fill="#A2636B" d="M434.5,94.3c1.7-3.1,5.7-4.3,8.8-2.6c3.1,1.7,4.3,5.6,2.6,8.8c-1.7,3.1-5.7,4.3-8.8,2.6
		C434,101.3,432.8,97.4,434.5,94.3z"/>
	<path fill="#313043" d="M432.8,97L432.8,97h2.6l1.1-3.2l0.2,3.2h1.2l0.7-1.8l0.1,1.8h9.1l0,0c0-3.8-3.1-6.8-6.9-6.8h-1.3
		C435.9,90.1,432.8,93.2,432.8,97L432.8,97z"/>
</g>
<title>date_night</title>
<g>
	<rect x="46.7" y="50.8" fill="#D0CDE1" width="1.5" height="114.5"/>
	<ellipse fill="#585EA7" cx="27" cy="53.7" rx="2.9" ry="3.7"/>
	<ellipse fill="#D0CDE1" cx="27.2" cy="51.1" rx="8.1" ry="1.7"/>
	<path fill="#D0CDE1" d="M48.1,50.8h-1.5c0-6.5-4.2-11.8-9.4-11.8c-5.2,0-9.3,5.3-9.4,11.8h-1.5c0-7.6,4.8-13.7,10.8-13.7
		C43.3,37.1,48.1,43.2,48.1,50.8z"/>
	<ellipse fill="#585EA7" cx="67.8" cy="53.7" rx="2.9" ry="3.7"/>
	<ellipse fill="#D0CDE1" cx="67.5" cy="51.1" rx="8.1" ry="1.7"/>
	<path fill="#D0CDE1" d="M46.6,50.8h1.5c0-6.5,4.2-11.8,9.4-11.8c5.2,0,9.4,5.3,9.4,11.8c0,0,0,0,0,0h1.5c0-7.6-4.8-13.7-10.8-13.7
		C51.5,37.1,46.6,43.2,46.6,50.8z"/>
	<rect x="44.7" y="156.9" fill="#D0CDE1" width="5.4" height="8.6"/>
</g>
<g>
	<ellipse fill="#302F42" cx="202.5" cy="94.6" rx="6.1" ry="6.7"/>
	<path fill="#A1626A" d="M211.1,135.1l0.9,2c0,0,2.9,5.3,0.9,5.9c-2,0.6-2.7-4-2.7-4l-0.4-2.4L211.1,135.1z"/>
	<polygon fill="#D0CDE1" points="207.4,124.8 209.7,131.4 212,136.1 209.2,138.1 206.9,133.7 204.1,126.7 	"/>
	<path fill="#A1626A" d="M200.9,156.1l-4.6,5.4l-8.1,15.1l-3.5-1.2l4.1-9c0,0,2.4-6.9,3.6-7.8c1.2-0.9,3.2-6.9,3.2-6.9l2.2-1.9
		L200.9,156.1z"/>
	<path fill="#A1626A" d="M210.4,159l0.4,1.7c0,0,1.2,5.4,3,7.8l4.4,8.4l3.3-1.2l-6.5-17L210.4,159z"/>
	<ellipse fill="#A1626A" cx="203.5" cy="97" rx="5" ry="5.5"/>
	<path fill="#A1626A" d="M199.6,99.6l-0.6,5.9l4.1,2.2c0,0,0-5.1,1.1-6.4L199.6,99.6z"/>
	<path fill="#A1626A" d="M186.6,137.5l-0.5,1.7c0,0-3,6.6-0.5,6.6s3-6.1,3-6.1l0.3-1.5L186.6,137.5z"/>
	<path fill="#302F42" d="M207.8,130.6l-0.6,5l7.8,18.1l0.5,5.3l-14.6,2l-3.2-9.8l-5.1,7.3l2.9-7.5c0,0,0.9-5.1,0.6-6.4
		c-0.3-1.3,0.2-7.9,1-9.5C197.9,133.5,207.8,130.6,207.8,130.6z"/>
	<path fill="#302F42" d="M188.8,176.5l-4.4-1.6l-1.4,2.4c0,0-2.7,0.8-2.6,2.9c0.1,2.1-0.5,5.8-0.5,5.8l1.9,0.2l0.7-4.2l3.8,5
		c0,0,6.7,0.4,7-0.8c0.3-1.2-4.8-2.5-4.8-2.5l-0.8-4.4L188.8,176.5z"/>
	<path fill="#302F42" d="M221.8,175.1l-4,1.4v1c0,0-1.2,2-1,3.7c0.2,1.7,1,5.9,1,5.9h2.1l-0.1-3.8l4.2,3.8c0,0,7.5-0.6,7.5-1.9
		c0-1.3-5.8-2.2-5.8-2.2L221.8,175.1z"/>
	<path fill="#D0CDE1" d="M203.4,106.5c0,0-3.8-4.2-5.5-3.1v1.8c0,0-2.6,1.3-2.7,3.3c-0.1,2-2.8,20.5-2.8,20.5l-6.2,24
		c0,0,1.9,3.3,9-0.4l4.4-16.5c0,0-4.7,18.6-2.4,18.3s11.3-23.4,11.3-23.4l-0.6-10.9c0,0,1.5-4.8-1.5-8L203.4,106.5z"/>
	<path fill="#D0CDE1" d="M196.9,107.1c0,0-1.6,0.6-2.7,3.2c-1.1,2.6-6.6,21.2-6.6,21.2l-1.5,6.6l4.1,1.1l2-6.8l7.5-15.4
		C199.9,117.1,201.1,109,196.9,107.1z"/>
	<path fill="#302F42" d="M197.3,92.6c0.1-1.3,0.6-2.5,1.6-3.1c-0.5-1.1-1-2.4-0.6-3.6c0.3-0.9,1-1.6,1.9-1.8c0.5-0.1,1-0.1,1.5,0
		l2.3,0.3c0.7,0.1,1.5,0.2,2.1,0.6c1.1,0.8,1.5,2.5,0.8,3.7c-0.1,0.2-0.3,0.4-0.5,0.6c1.6,1.4,2.6,2.5,3.4,4.5
		c-1.3-1.2-2.6-1.6-4.3-1.7c-2.2-0.1-4.1,1.7-4.3,4.1c0,0.6,0,1.2-0.1,1.7s-0.6,1.1-1.1,1c0.1,0,0.5-1.5,0.2-2.2l0,0
		c-0.1-0.1-0.2-0.3-0.3-0.3c-0.5-0.2-1,0.1-1.2,0.6c0,0,0,0.1,0,0.1c-0.2,0.7-0.5,1.7-0.7,1.4c-0.3-0.3-0.2-3.2-0.3-3.7
		C197.3,94.2,197.3,93.4,197.3,92.6z"/>
	<path fill="#D0CDE1" d="M199,89.5c0,0,5,0.4,7.4-0.1"/>
	<path fill="#302F42" d="M199.3,88.7c-0.5-1.1-1-2.4-0.6-3.6c0.2-0.5,0.5-1,0.9-1.3c-0.6,0.3-1.1,0.9-1.3,1.6
		c-0.3,1.2,0.1,2.5,0.6,3.6C199.2,89,198.2,89.3,199.3,88.7z"/>
	<polygon opacity="0.2" fill="#010202" enable-background="new    " points="200.8,117.1 193.7,131.1 190.9,138.7 194.8,131.4 	"/>
</g>
<title>millennial girl</title>
</svg>
